<svg width="30" height="30" viewBox="0 0 30 30" fill="none" xmlns="http://www.w3.org/2000/svg">
<path d="M15.353 4.10906C15.2403 3.98972 15.1521 3.84934 15.0936 3.69593C15.0351 3.54252 15.0073 3.37908 15.012 3.21496C15.0166 3.05083 15.0535 2.88922 15.1206 2.73937C15.1877 2.58951 15.2837 2.45433 15.403 2.34156C15.5224 2.22879 15.6628 2.14063 15.8162 2.08211C15.9696 2.02359 16.133 1.99586 16.2971 2.0005C16.4613 2.00514 16.6229 2.04207 16.7727 2.10917C16.9226 2.17626 17.0578 2.27222 17.1705 2.39156L27.7955 13.6416C28.015 13.8736 28.1372 14.1809 28.1372 14.5003C28.1372 14.8197 28.015 15.127 27.7955 15.3591L17.1705 26.6103C17.0585 26.7323 16.9234 26.8307 16.773 26.9C16.6226 26.9693 16.4599 27.008 16.2944 27.0139C16.1289 27.0198 15.9639 26.9927 15.8089 26.9343C15.654 26.8758 15.5122 26.7872 15.3918 26.6735C15.2714 26.5598 15.1748 26.4233 15.1076 26.272C15.0404 26.1206 15.0039 25.9574 15.0003 25.7919C14.9967 25.6263 15.026 25.4617 15.0866 25.3076C15.1471 25.1534 15.2377 25.0129 15.353 24.8941L25.168 14.5003L15.353 4.10906Z" fill="#DCB124"/>
</svg>
